<svg xmlns="http://www.w3.org/2000/svg" viewBox="0 0 1080 1080"><defs><style>.cls-1{isolation:isolate;}.cls-2{fill:#d0d2d3;mix-blend-mode:multiply;}.cls-3{fill:#fff;}.cls-4{fill:#077cc1;}.cls-5{fill:#004f7e;}.cls-6{fill:#7ca3d5;}.cls-7{fill:#eb3a69;}</style></defs><title>18ADP_Brand_Illustrations</title><g class="cls-1"><g id="Layer_1" data-name="Layer 1"><ellipse class="cls-2" cx="531.62" cy="836.16" rx="477.38" ry="21.62"/><rect class="cls-3" x="117.84" y="400.87" width="291.66" height="434.13"/><rect class="cls-4" x="130.36" y="414.39" width="264.11" height="405.72"/><circle class="cls-5" cx="262.39" cy="651.89" r="77.46"/><polygon class="cls-3" points="306.23 654.21 236.43 613.91 236.43 694.51 306.23 654.21"/><polygon class="cls-3" points="366.94 530.32 361.02 530.32 361.02 527.95 364.57 527.95 364.57 524.4 366.94 524.4 366.94 530.32"/><path class="cls-3" d="M351.67,530.32h-9.34V528h9.34Zm-18.68,0h-9.34V528H333Zm-18.68,0H305V528h9.34Zm-18.68,0h-9.34V528h9.34Zm-18.69,0H267.6V528h9.34Zm-18.68,0h-9.34V528h9.34Zm-18.68,0h-9.34V528h9.34Zm-18.68,0h-9.35V528h9.35Zm-18.69,0h-9.34V528h9.34Zm-18.68,0h-9.34V528h9.34Z"/><polygon class="cls-3" points="164.85 530.32 158.93 530.32 158.93 524.4 161.3 524.4 161.3 527.95 164.85 527.95 164.85 530.32"/><rect class="cls-3" x="158.93" y="500.24" width="2.37" height="12.08"/><polygon class="cls-3" points="161.3 488.16 158.93 488.16 158.93 482.24 164.85 482.24 164.85 484.61 161.3 484.61 161.3 488.16"/><path class="cls-3" d="M351.67,484.61h-9.34v-2.37h9.34Zm-18.68,0h-9.34v-2.37H333Zm-18.68,0H305v-2.37h9.34Zm-18.68,0h-9.34v-2.37h9.34Zm-18.69,0H267.6v-2.37h9.34Zm-18.68,0h-9.34v-2.37h9.34Zm-18.68,0h-9.34v-2.37h9.34Zm-18.68,0h-9.34v-2.37h9.34Zm-18.69,0h-9.34v-2.37h9.34Zm-18.68,0h-9.34v-2.37h9.34Z"/><polygon class="cls-3" points="366.94 488.16 364.57 488.16 364.57 484.61 361.02 484.61 361.02 482.24 366.94 482.24 366.94 488.16"/><rect class="cls-3" x="364.57" y="500.24" width="2.37" height="12.08"/><polygon class="cls-3" points="366.94 763.6 361.02 763.6 361.02 761.23 364.57 761.23 364.57 757.68 366.94 757.68 366.94 763.6"/><path class="cls-3" d="M351.67,763.6h-9.34v-2.37h9.34Zm-18.68,0h-9.34v-2.37H333Zm-18.68,0H305v-2.37h9.34Zm-18.68,0h-9.34v-2.37h9.34Zm-18.69,0H267.6v-2.37h9.34Zm-18.68,0h-9.34v-2.37h9.34Zm-18.68,0h-9.34v-2.37h9.34Zm-18.68,0h-9.35v-2.37h9.35Zm-18.69,0h-9.34v-2.37h9.34Zm-18.68,0h-9.34v-2.37h9.34Z"/><polygon class="cls-3" points="164.85 763.6 158.93 763.6 158.93 757.68 161.3 757.68 161.3 761.23 164.85 761.23 164.85 763.6"/><path class="cls-3" d="M161.3,747.83h-2.37V738h2.37Zm0-19.68h-2.37v-9.84h2.37Zm0-19.69h-2.37v-9.84h2.37Zm0-19.68h-2.37v-9.84h2.37Zm0-19.69h-2.37v-9.84h2.37Zm0-19.68h-2.37v-9.85h2.37Zm0-19.69h-2.37v-9.84h2.37Zm0-19.69h-2.37v-9.84h2.37Zm0-19.68h-2.37V580.5h2.37Zm0-19.69h-2.37v-9.84h2.37Z"/><polygon class="cls-3" points="161.3 550.98 158.93 550.98 158.93 545.06 164.85 545.06 164.85 547.43 161.3 547.43 161.3 550.98"/><path class="cls-3" d="M351.67,547.43h-9.34v-2.37h9.34Zm-18.68,0h-9.34v-2.37H333Zm-18.68,0H305v-2.37h9.34Zm-18.68,0h-9.34v-2.37h9.34Zm-18.69,0H267.6v-2.37h9.34Zm-18.68,0h-9.34v-2.37h9.34Zm-18.68,0h-9.34v-2.37h9.34Zm-18.68,0h-9.34v-2.37h9.34Zm-18.69,0h-9.34v-2.37h9.34Zm-18.68,0h-9.34v-2.37h9.34Z"/><polygon class="cls-3" points="366.94 550.98 364.57 550.98 364.57 547.43 361.02 547.43 361.02 545.06 366.94 545.06 366.94 550.98"/><path class="cls-3" d="M366.94,747.84h-2.37V738h2.37Zm0-19.69h-2.37v-9.84h2.37Zm0-19.69h-2.37v-9.84h2.37Zm0-19.68h-2.37v-9.84h2.37Zm0-19.69h-2.37v-9.84h2.37Zm0-19.68h-2.37v-9.85h2.37Zm0-19.69h-2.37v-9.84h2.37Zm0-19.68h-2.37v-9.85h2.37Zm0-19.69h-2.37v-9.84h2.37Zm0-19.69h-2.37v-9.84h2.37Z"/><rect class="cls-3" x="656.45" y="400.87" width="291.66" height="434.13"/><rect class="cls-5" x="668.97" y="414.39" width="264.11" height="405.72"/><circle class="cls-6" cx="801" cy="651.89" r="77.46"/><polygon class="cls-3" points="844.84 654.21 775.04 613.91 775.04 694.51 844.84 654.21"/><polygon class="cls-3" points="905.54 530.32 899.63 530.32 899.63 527.95 903.18 527.95 903.18 524.4 905.54 524.4 905.54 530.32"/><path class="cls-3" d="M890.28,530.32h-9.34V528h9.34Zm-18.68,0h-9.34V528h9.34Zm-18.68,0h-9.34V528h9.34Zm-18.68,0H824.9V528h9.34Zm-18.69,0h-9.34V528h9.34Zm-18.68,0h-9.34V528h9.34Zm-18.68,0h-9.34V528h9.34Zm-18.69,0h-9.34V528h9.34Zm-18.68,0h-9.34V528h9.34Zm-18.68,0H712.8V528h9.34Z"/><polygon class="cls-3" points="703.46 530.32 697.54 530.32 697.54 524.4 699.91 524.4 699.91 527.95 703.46 527.95 703.46 530.32"/><rect class="cls-3" x="697.54" y="500.24" width="2.37" height="12.08"/><polygon class="cls-3" points="699.91 488.16 697.54 488.16 697.54 482.24 703.46 482.24 703.46 484.61 699.91 484.61 699.91 488.16"/><path class="cls-3" d="M890.28,484.61h-9.34v-2.37h9.34Zm-18.68,0h-9.34v-2.37h9.34Zm-18.68,0h-9.34v-2.37h9.34Zm-18.68,0H824.9v-2.37h9.34Zm-18.69,0h-9.34v-2.37h9.34Zm-18.68,0h-9.34v-2.37h9.34Zm-18.68,0h-9.34v-2.37h9.34Zm-18.69,0h-9.33v-2.37h9.33Zm-18.68,0h-9.34v-2.37h9.34Zm-18.68,0H712.8v-2.37h9.34Z"/><polygon class="cls-3" points="905.54 488.16 903.18 488.16 903.18 484.61 899.63 484.61 899.63 482.24 905.54 482.24 905.54 488.16"/><rect class="cls-3" x="903.18" y="500.24" width="2.37" height="12.08"/><polygon class="cls-3" points="905.54 763.6 899.63 763.6 899.63 761.23 903.18 761.23 903.18 757.68 905.54 757.68 905.54 763.6"/><path class="cls-3" d="M890.28,763.6h-9.34v-2.37h9.34Zm-18.68,0h-9.34v-2.37h9.34Zm-18.68,0h-9.34v-2.37h9.34Zm-18.68,0H824.9v-2.37h9.34Zm-18.69,0h-9.34v-2.37h9.34Zm-18.68,0h-9.34v-2.37h9.34Zm-18.68,0h-9.34v-2.37h9.34Zm-18.69,0h-9.34v-2.37h9.34Zm-18.68,0h-9.34v-2.37h9.34Zm-18.68,0H712.8v-2.37h9.34Z"/><polygon class="cls-3" points="703.46 763.6 697.54 763.6 697.54 757.68 699.91 757.68 699.91 761.23 703.46 761.23 703.46 763.6"/><path class="cls-3" d="M699.91,747.83h-2.37V738h2.37Zm0-19.68h-2.37v-9.84h2.37Zm0-19.69h-2.37v-9.84h2.37Zm0-19.68h-2.37v-9.84h2.37Zm0-19.69h-2.37v-9.84h2.37Zm0-19.68h-2.37v-9.85h2.37Zm0-19.69h-2.37v-9.84h2.37Zm0-19.69h-2.37v-9.84h2.37Zm0-19.68h-2.37V580.5h2.37Zm0-19.69h-2.37v-9.84h2.37Z"/><polygon class="cls-3" points="699.91 550.98 697.54 550.98 697.54 545.06 703.46 545.06 703.46 547.43 699.91 547.43 699.91 550.98"/><path class="cls-3" d="M890.28,547.43h-9.34v-2.37h9.34Zm-18.68,0h-9.34v-2.37h9.34Zm-18.68,0h-9.34v-2.37h9.34Zm-18.68,0H824.9v-2.37h9.34Zm-18.69,0h-9.34v-2.37h9.34Zm-18.68,0h-9.34v-2.37h9.34Zm-18.68,0h-9.34v-2.37h9.34Zm-18.69,0h-9.33v-2.37h9.33Zm-18.68,0h-9.34v-2.37h9.34Zm-18.68,0H712.8v-2.37h9.34Z"/><polygon class="cls-3" points="905.54 550.98 903.18 550.98 903.18 547.43 899.63 547.43 899.63 545.06 905.54 545.06 905.54 550.98"/><path class="cls-3" d="M905.54,747.84h-2.36V738h2.36Zm0-19.69h-2.36v-9.84h2.36Zm0-19.69h-2.36v-9.84h2.36Zm0-19.68h-2.36v-9.84h2.36Zm0-19.69h-2.36v-9.84h2.36Zm0-19.68h-2.36v-9.85h2.36Zm0-19.69h-2.36v-9.84h2.36Zm0-19.68h-2.36v-9.85h2.36Zm0-19.69h-2.36v-9.84h2.36Zm0-19.69h-2.36v-9.84h2.36Z"/><rect class="cls-2" x="339.74" y="401.31" width="383.51" height="433.73"/><rect class="cls-3" x="360.55" y="325.24" width="342.47" height="509.77"/><rect class="cls-6" x="375.25" y="341.11" width="310.12" height="476.41"/><circle class="cls-4" cx="530.28" cy="620.52" r="90.95"/><polygon class="cls-3" points="581.76 622.72 499.8 575.4 499.8 670.03 581.76 622.72"/><polygon class="cls-3" points="652.84 477.03 646.92 477.03 646.92 474.67 650.47 474.67 650.47 471.12 652.84 471.12 652.84 477.03"/><path class="cls-3" d="M637.64,477h-9.28v-2.36h9.28Zm-18.56,0H609.8v-2.36h9.28Zm-18.56,0h-9.28v-2.36h9.28ZM582,477h-9.28v-2.36H582Zm-18.56,0h-9.28v-2.36h9.28Zm-18.56,0h-9.28v-2.36h9.28Zm-18.56,0H517v-2.36h9.28Zm-18.56,0h-9.28v-2.36h9.28Zm-18.56,0h-9.28v-2.36h9.28Zm-18.56,0h-9.28v-2.36h9.28ZM452,477h-9.28v-2.36H452Zm-18.56,0H424.2v-2.36h9.28Z"/><polygon class="cls-3" points="414.92 477.03 409.01 477.03 409.01 471.12 411.37 471.12 411.37 474.67 414.92 474.67 414.92 477.03"/><path class="cls-3" d="M411.37,462.27H409v-8.84h2.36Zm0-17.68H409v-8.84h2.36Z"/><polygon class="cls-3" points="411.37 426.91 409.01 426.91 409.01 420.99 414.92 420.99 414.92 423.36 411.37 423.36 411.37 426.91"/><path class="cls-3" d="M637.64,423.36h-9.28V421h9.28Zm-18.56,0H609.8V421h9.28Zm-18.56,0h-9.28V421h9.28Zm-18.56,0h-9.28V421H582Zm-18.56,0h-9.28V421h9.28Zm-18.56,0h-9.28V421h9.28Zm-18.56,0H517V421h9.28Zm-18.56,0h-9.28V421h9.28Zm-18.56,0h-9.28V421h9.28Zm-18.56,0h-9.28V421h9.28Zm-18.56,0h-9.28V421H452Zm-18.56,0H424.2V421h9.28Z"/><polygon class="cls-3" points="652.84 426.91 650.47 426.91 650.47 423.36 646.92 423.36 646.92 420.99 652.84 420.99 652.84 426.91"/><path class="cls-3" d="M652.84,462.27h-2.37v-8.84h2.37Zm0-17.68h-2.37v-8.84h2.37Z"/><polygon class="cls-3" points="652.84 750.95 646.92 750.95 646.92 748.58 650.47 748.58 650.47 745.03 652.84 745.03 652.84 750.95"/><path class="cls-3" d="M637.64,751h-9.28v-2.37h9.28Zm-18.56,0H609.8v-2.37h9.28Zm-18.56,0h-9.28v-2.37h9.28ZM582,751h-9.28v-2.37H582Zm-18.56,0h-9.28v-2.37h9.28Zm-18.56,0h-9.28v-2.37h9.28Zm-18.56,0H517v-2.37h9.28Zm-18.56,0h-9.28v-2.37h9.28Zm-18.56,0h-9.28v-2.37h9.28Zm-18.56,0h-9.28v-2.37h9.28ZM452,751h-9.28v-2.37H452Zm-18.56,0H424.2v-2.37h9.28Z"/><polygon class="cls-3" points="414.92 750.95 409.01 750.95 409.01 745.03 411.37 745.03 411.37 748.58 414.92 748.58 414.92 750.95"/><path class="cls-3" d="M411.37,735.26H409v-9.78h2.36Zm0-19.55H409v-9.77h2.36Zm0-19.55H409v-9.77h2.36Zm0-19.55H409v-9.77h2.36Zm0-19.55H409v-9.77h2.36Zm0-19.55H409v-9.77h2.36Zm0-19.55H409v-9.77h2.36Zm0-19.54H409v-9.78h2.36Zm0-19.55H409v-9.78h2.36Zm0-19.55H409v-9.78h2.36Zm0-19.55H409V530h2.36Zm0-19.55H409v-9.77h2.36Z"/><polygon class="cls-3" points="411.37 500.67 409.01 500.67 409.01 494.75 414.92 494.75 414.92 497.12 411.37 497.12 411.37 500.67"/><path class="cls-3" d="M637.64,497.12h-9.28v-2.37h9.28Zm-18.56,0H609.8v-2.37h9.28Zm-18.56,0h-9.28v-2.37h9.28Zm-18.56,0h-9.28v-2.37H582Zm-18.56,0h-9.28v-2.37h9.28Zm-18.56,0h-9.28v-2.37h9.28Zm-18.56,0H517v-2.37h9.28Zm-18.56,0h-9.28v-2.37h9.28Zm-18.56,0h-9.28v-2.37h9.28Zm-18.56,0h-9.28v-2.37h9.28Zm-18.56,0h-9.28v-2.37H452Zm-18.56,0H424.2v-2.37h9.28Z"/><polygon class="cls-3" points="652.84 500.67 650.47 500.67 650.47 497.12 646.92 497.12 646.92 494.75 652.84 494.75 652.84 500.67"/><path class="cls-3" d="M652.84,735.26h-2.37v-9.78h2.37Zm0-19.55h-2.37v-9.77h2.37Zm0-19.55h-2.37v-9.77h2.37Zm0-19.55h-2.37v-9.77h2.37Zm0-19.55h-2.37v-9.77h2.37Zm0-19.55h-2.37v-9.77h2.37Zm0-19.55h-2.37v-9.77h2.37Zm0-19.54h-2.37v-9.78h2.37Zm0-19.55h-2.37v-9.78h2.37Zm0-19.55h-2.37v-9.78h2.37Zm0-19.55h-2.37V530h2.37Zm0-19.55h-2.37v-9.78h2.37Z"/><circle class="cls-7" cx="698.68" cy="334.64" r="69.09"/><polygon class="cls-3" points="687.74 365.65 656.82 334.73 661.84 329.71 687.74 355.6 734.16 309.19 739.18 314.21 687.74 365.65"/></g></g></svg>