<svg id="Layer_1" data-name="Layer 1" xmlns="http://www.w3.org/2000/svg" viewBox="0 0 1080 1080"><defs><style>.cls-1{fill:#fff;}</style></defs><title>Blueprint_Logo</title><path class="cls-1" d="M936,99.89H144a21.64,21.64,0,0,0-21.64,21.64V958.47A21.64,21.64,0,0,0,144,980.11H936a21.64,21.64,0,0,0,21.64-21.64V121.53A21.64,21.64,0,0,0,936,99.89Zm-249.12,71h42v20.79h-42Zm-83.9,0h41.95v20.79H602.94Zm-83.91,0h42v20.79H519Zm-83.91,0h41.95v20.79H435.12ZM403.68,336a21.31,21.31,0,0,1,31.95-18.42L705,473.82a16.05,16.05,0,0,1-16,27.82L435.76,355V647.35a15.93,15.93,0,0,1-15.78,16h-.51a16.42,16.42,0,0,1-15.79-16.54ZM351.21,170.93h42v20.79h-42Zm-83.91,0h41.95v20.79H267.3Zm-73.15,70.95h20.79v39.75H194.15Zm0,79.49h20.79v39.75H194.15Zm0,79.51h20.79v39.74H194.15Zm0,79.49h20.79v39.76H194.15Zm0,79.51h20.79v39.74H194.15Zm0,79.5h20.79v39.75H194.15Zm0,79.5h20.79v39.74H194.15Zm0,79.5h20.79v39.75H194.15Zm31.18,110.68H203.16a9,9,0,0,1-9-9V877.87h20.79v10.4h10.39Zm0-717.34H214.94v10.4H194.15V180a9,9,0,0,1,9-9h22.17Zm83.93,717.34h-42V888.27h42Zm41.3-488.24a16.54,16.54,0,0,1,15.79-16.66,16.16,16.16,0,0,1,16.28,16h0V712.63L635.85,566.42a16.05,16.05,0,1,1,16,27.81L382.38,749.47a21.3,21.3,0,0,1-31.82-18Zm42.61,488.24h-42V888.27h42Zm83.9,0H435.12V888.27h41.95Zm83.91,0H519V888.27h42Zm83.91,0H602.94V888.27h41.95Zm83.91,0H686.85V888.27H728.8ZM759,590.65a21.32,21.32,0,0,1-7.72,7.72l-269.51,156a16.8,16.8,0,0,1-8,2.13,16.19,16.19,0,0,1-14.41-8A15.92,15.92,0,0,1,465,726.68l.24-.14L718.92,580.32,465.7,434.1a15.91,15.91,0,0,1-6.62-21.5c.08-.14.16-.28.23-.42a16.16,16.16,0,0,1,21.93-5.89l270,155.24A21.3,21.3,0,0,1,759,590.65Zm53.74,318.41h-42V888.27h42Zm0-717.34h-42V170.93h42ZM885.85,900a9,9,0,0,1-9,9H854.66V888.27h10.4v-10.4h20.79Zm0-61.91H865.06V798.38h20.79Zm0-79.5H865.06V718.89h20.79Zm0-79.5H865.06V639.38h20.79Zm0-79.5H865.06V559.88h20.79Zm0-79.5H865.06V480.38h20.79Zm0-79.51H865.06V400.88h20.79Zm0-79.49H865.06V321.38h20.79Zm0-79.5H865.06V241.88h20.79Zm0-79.51H865.06v-10.4h-10.4V170.93h22.17a9,9,0,0,1,9,9Z"/></svg>