<svg id="Layer_1" data-name="Layer 1" xmlns="http://www.w3.org/2000/svg" viewBox="0 0 1080 1080"><defs><style>.cls-1{fill:#fff;}</style></defs><title>Blueprint_Logo</title><path class="cls-1" d="M400.52,515.32c12.73,0,21-4.34,27.78-10.85a6.82,6.82,0,0,0,2.46-5.5,7.37,7.37,0,0,0-12.3-5.78c-4.77,4.05-10.12,6.79-17.07,6.79-13.45,0-22.85-10.85-22.85-24.44v-.29c0-13.31,9.4-24.3,22.13-24.3,6.94,0,11.86,2.74,16.34,6.51a9,9,0,0,0,5.21,1.73,8,8,0,0,0,8.1-7.95,8.28,8.28,0,0,0-2.75-6.08c-6.5-5.64-14.75-9.55-26.76-9.55-23,0-39.78,18.23-39.78,39.93v.29C361,497.52,377.81,515.32,400.52,515.32Z"/><path class="cls-1" d="M493.25,444.87c0-5.06-3.18-8.68-8.68-8.68-7.67,0-15.19,7.23-19.24,16.78v-7.81a8.76,8.76,0,0,0-8.82-8.82,8.64,8.64,0,0,0-8.68,8.82v60.47a8.61,8.61,0,0,0,8.68,8.67,8.73,8.73,0,0,0,8.82-8.67V483.06c0-18.08,8.53-27.63,21-29.8A8.21,8.21,0,0,0,493.25,444.87Z"/><path class="cls-1" d="M562.83,492.75a6.53,6.53,0,0,0-4.49,1.59A27.45,27.45,0,0,1,540.26,501c-11.28,0-20.11-6.95-22-19.39h47.88a8.18,8.18,0,0,0,8.25-8.39c0-17.64-12-37.61-36.31-37.61-21.84,0-37.32,17.94-37.32,39.78v.29c0,23.58,17.07,39.64,39.2,39.64,11.86,0,20.54-3.91,27.48-10.13a7.6,7.6,0,0,0,2.32-5.35A6.89,6.89,0,0,0,562.83,492.75ZM538,449.93c11.57,0,18.22,8.83,19.38,20.11h-39.2C519.72,458.18,527.24,449.93,538,449.93Z"/><path class="cls-1" d="M656.27,505.91V468.3c0-10-2.6-18.08-8.24-23.57-5.36-5.5-13.89-8.54-25.32-8.54a65.42,65.42,0,0,0-24.59,4.49,7.64,7.64,0,0,0-4.77,6.94,7.28,7.28,0,0,0,7.37,7.23,9.78,9.78,0,0,0,2.75-.43,45.4,45.4,0,0,1,16.93-3c12.29,0,19,5.79,19,16.64v1.88a63.82,63.82,0,0,0-20.54-3.19c-18.66,0-31.54,8.1-31.54,24.59v.29c0,15.34,12.73,23.58,27.05,23.58,11.72,0,19.67-4.92,24.88-11.14v2.9c0,3.9,3.47,7.37,8.54,7.37A8.33,8.33,0,0,0,656.27,505.91ZM639.64,486.1c0,9.69-8.83,16.34-20.4,16.34-8.39,0-14.9-4.19-14.9-11.57v-.29c0-7.95,6.65-12.73,17.94-12.73a48.48,48.48,0,0,1,17.36,3Z"/><path class="cls-1" d="M677.25,452.25h2.89v40.21c0,16.78,9.11,22.42,22,22.42a34.82,34.82,0,0,0,12-2,7.53,7.53,0,0,0,4.63-6.8,7.37,7.37,0,0,0-7.37-7.23,42,42,0,0,1-4.34.43c-5.93,0-9.4-2.75-9.4-9.55V452.25h13.74a7.53,7.53,0,1,0,0-15.05H697.65v-13a8.76,8.76,0,0,0-17.51,0v13h-2.89a7.53,7.53,0,0,0,0,15.05Z"/><path class="cls-1" d="M754.49,505.63V445.16a8.76,8.76,0,0,0-8.82-8.82,8.64,8.64,0,0,0-8.68,8.82v60.47a8.75,8.75,0,0,0,17.5,0Z"/><path class="cls-1" d="M745.67,426.21c5.64,0,10-3.47,10-8.68v-.87c0-5.2-4.34-8.53-10-8.53s-10,3.33-10,8.53v.87C735.69,422.74,740,426.21,745.67,426.21Z"/><path class="cls-1" d="M845.63,444.73a8.34,8.34,0,0,0-8.54-8.39c-4.63,0-6.94,3-8.25,6.07l-20,50.92L789.21,442.7c-1.45-3.62-3.9-6.36-8.68-6.36a8.75,8.75,0,0,0-8.68,8.39,13.8,13.8,0,0,0,1,4.34l25.46,58.29c2,4.63,5.21,7.67,10,7.67h.87c4.78,0,8-3.18,10-7.67l25.46-58.44A10.37,10.37,0,0,0,845.63,444.73Z"/><path class="cls-1" d="M924,499.84a6.89,6.89,0,0,0-6.95-7.09,6.52,6.52,0,0,0-4.48,1.59A27.45,27.45,0,0,1,894.52,501c-11.28,0-20.11-6.95-22-19.39h47.88a8.18,8.18,0,0,0,8.25-8.39c0-17.64-12-37.61-36.31-37.61-21.84,0-37.32,17.94-37.32,39.78v.29c0,23.58,17.07,39.64,39.2,39.64,11.86,0,20.54-3.91,27.48-10.13A7.6,7.6,0,0,0,924,499.84ZM892.2,449.93c11.58,0,18.23,8.83,19.39,20.11h-39.2C874,458.18,881.5,449.93,892.2,449.93Z"/><path class="cls-1" d="M406.46,571.11c-13.75,0-22.57,7.66-28.65,16.63V546.8a5.57,5.57,0,1,0-11.13,0v95.77a5.65,5.65,0,0,0,5.64,5.64,5.52,5.52,0,0,0,5.49-5.64v-9.41c5.79,8.39,14.76,15.91,28.65,15.91,18.08,0,35.72-14.46,35.72-38.91v-.29C442.18,585.28,424.39,571.11,406.46,571.11Zm24.3,39.2c0,18.08-11.86,28.78-26.33,28.78-13.89,0-27.05-11.57-27.05-28.93v-.29c0-17.07,13.16-28.78,27.05-28.78,14.17,0,26.33,11.28,26.33,28.93Z"/><path class="cls-1" d="M463.45,541.16a5.62,5.62,0,0,0-5.5,5.64v95.77a5.56,5.56,0,0,0,5.64,5.64,5.44,5.44,0,0,0,5.5-5.64V546.8A5.65,5.65,0,0,0,463.45,541.16Z"/><path class="cls-1" d="M547.78,572a5.44,5.44,0,0,0-5.5,5.64v37.91c0,14-9.69,23.43-22.42,23.43-13.16,0-20.68-8.68-20.68-22.57V577.61a5.65,5.65,0,0,0-5.65-5.64,5.44,5.44,0,0,0-5.49,5.64v41.52c0,17.79,10.56,29.94,28.64,29.94,12.87,0,20.54-6.5,25.6-14.61v8.11a5.5,5.5,0,1,0,11,0v-65A5.53,5.53,0,0,0,547.78,572Z"/><path class="cls-1" d="M603.76,571.11c-20.69,0-35.87,17.35-35.87,38.91v.29c0,23.14,16.78,38.91,37.32,38.91,12.73,0,21.12-4.49,28.2-11.28a4.76,4.76,0,1,0-6.36-7.09c-5.5,5.06-12.3,8.68-21.55,8.68-13.31,0-24.74-9.12-26.33-25.32h54.1a5.18,5.18,0,0,0,5.21-5.2C638.48,589.19,625.89,571.11,603.76,571.11ZM579.17,606c1.45-14.61,11.28-25.46,24.3-25.46,14.9,0,22.71,11.86,23.87,25.46Z"/><path class="cls-1" d="M692.14,571.11c-13.74,0-22.56,7.66-28.64,16.63V577.61a5.57,5.57,0,1,0-11.14,0v88.1a5.56,5.56,0,0,0,5.64,5.64,5.44,5.44,0,0,0,5.5-5.64V633.16c5.79,8.39,14.76,15.91,28.64,15.91,18.08,0,35.73-14.46,35.73-38.91v-.29C727.87,585.28,710.08,571.11,692.14,571.11Zm24.3,39.2c0,18.08-11.86,28.78-26.32,28.78-13.89,0-27-11.57-27-28.93v-.29c0-17.07,13.16-28.78,27-28.78,14.17,0,26.32,11.28,26.32,28.93Z"/><path class="cls-1" d="M779.51,571.69c-9.4,0-20.25,7.52-25.74,20v-14a5.56,5.56,0,0,0-5.65-5.64,5.62,5.62,0,0,0-5.49,5.64v65a5.57,5.57,0,1,0,11.14,0V617.11c0-21.56,11.86-32.41,26.32-34.14a5.54,5.54,0,0,0,4.92-5.64A5.35,5.35,0,0,0,779.51,571.69Z"/><path class="cls-1" d="M801.93,543.33c-3.61,0-6.51,2.32-6.51,5.93v1.88c0,3.48,2.9,5.94,6.51,5.94,3.76,0,6.66-2.46,6.66-5.94v-1.88C808.59,545.65,805.69,543.33,801.93,543.33Z"/><path class="cls-1" d="M801.93,572a5.62,5.62,0,0,0-5.49,5.64v65a5.56,5.56,0,0,0,5.64,5.64,5.44,5.44,0,0,0,5.5-5.64v-65A5.56,5.56,0,0,0,801.93,572Z"/><path class="cls-1" d="M864.42,571.11c-12.87,0-20.68,6.5-25.6,14.61v-8.11a5.56,5.56,0,0,0-5.64-5.64,5.62,5.62,0,0,0-5.5,5.64v65a5.56,5.56,0,0,0,5.64,5.64,5.44,5.44,0,0,0,5.5-5.64v-37.9c0-14,9.55-23.44,22.42-23.44,13.16,0,20.68,8.68,20.68,22.57v38.77a5.57,5.57,0,1,0,11.14,0V601.05C893.06,583.26,882.5,571.11,864.42,571.11Z"/><path class="cls-1" d="M945.43,582.53a5,5,0,0,0,5.06-4.92,5.09,5.09,0,0,0-5.06-4.91H926.05V555.05a5.75,5.75,0,0,0-5.65-5.64,5.52,5.52,0,0,0-5.49,5.64V572.7h-6.08a5,5,0,0,0-4.92,4.91,5.07,5.07,0,0,0,4.92,4.92h6.08v45.14c0,15.18,9.11,21.12,21.12,21.12a28.14,28.14,0,0,0,11-2,4.64,4.64,0,0,0,3.18-4.34,4.81,4.81,0,0,0-4.77-4.77c-.87,0-2.89,1-6.8,1-7.52,0-12.58-3.33-12.58-12.44V582.53Z"/><path class="cls-1" d="M991,604.81c-10-3-19.24-5.79-19.24-12.87v-.29c0-6.22,5.64-10.85,14.46-10.85,6.37,0,13.16,2.17,19.53,5.78a5.6,5.6,0,0,0,2.46.58,4.85,4.85,0,0,0,4.92-4.77,5.41,5.41,0,0,0-2.75-4.63,52.16,52.16,0,0,0-23.87-6.37c-14.75,0-25.46,8.54-25.46,21.41v.29c0,13.75,13,17.8,24.74,21.12,9.83,2.75,18.66,5.64,18.66,13.17v.29c0,7.23-6.51,11.86-15.48,11.86-8.1,0-16.06-2.75-23.72-8a4.47,4.47,0,0,0-2.75-.87,4.85,4.85,0,0,0-4.92,4.78,5,5,0,0,0,2,4,51.76,51.76,0,0,0,28.78,9.4c14.9,0,26.62-8.25,26.62-22.42v-.29C1015,612.77,1002.57,608.28,991,604.81Z"/><path class="cls-1" d="M304.41,408.53H67.48A6.47,6.47,0,0,0,61,415V665.4a6.47,6.47,0,0,0,6.47,6.47H304.41a6.47,6.47,0,0,0,6.47-6.47V415A6.47,6.47,0,0,0,304.41,408.53Zm-74.53,21.25h12.55V436H229.88Zm-25.11,0h12.55V436H204.77Zm-25.1,0h12.55V436H179.67Zm-25.1,0h12.55V436H154.57Zm-9.41,49.39a6.36,6.36,0,0,1,9.56-5.51l80.59,46.74a4.8,4.8,0,1,1-4.79,8.32l-75.76-43.86v87.46a4.76,4.76,0,0,1-4.72,4.8h-.16a4.92,4.92,0,0,1-4.72-5Zm-15.7-49.39H142V436H129.46Zm-25.1,0h12.55V436H104.36ZM82.47,451h6.22V462.9H82.47Zm0,23.78h6.22v11.89H82.47Zm0,23.79h6.22v11.89H82.47Zm0,23.78h6.22v11.89H82.47Zm0,23.79h6.22V558H82.47Zm0,23.78h6.22v11.89H82.47Zm0,23.78h6.22v11.9H82.47Zm0,23.79h6.22v11.89H82.47Zm9.33,33.11H85.17a2.69,2.69,0,0,1-2.7-2.69v-6.64h6.22v3.11H91.8ZM91.8,436H88.69v3.11H82.47v-6.63a2.7,2.7,0,0,1,2.7-2.7H91.8Zm25.11,214.61H104.36v-6.22h12.55Zm12.36-146.07a4.94,4.94,0,0,1,4.72-5,4.84,4.84,0,0,1,4.87,4.8h0v87.49l75.76-43.75a4.8,4.8,0,1,1,4.8,8.32l-80.63,46.45a6.37,6.37,0,0,1-9.52-5.4ZM142,650.61H129.46v-6.22H142Zm25.11,0H154.57v-6.22h12.55Zm25.1,0H179.67v-6.22h12.55Zm25.1,0H204.77v-6.22h12.55Zm25.11,0H229.88v-6.22h12.55Zm9-95.26a6.37,6.37,0,0,1-2.3,2.31l-80.64,46.67a5,5,0,0,1-2.39.64,4.85,4.85,0,0,1-4.32-2.4,4.77,4.77,0,0,1,1.69-6.52l.08,0,75.9-43.75-75.75-43.74a4.76,4.76,0,0,1-2-6.44l.06-.12a4.83,4.83,0,0,1,6.56-1.76l80.79,46.44A6.37,6.37,0,0,1,251.45,555.35Zm16.08,95.26H255v-6.22h12.55Zm0-214.61H255v-6.22h12.55Zm21.89,211.92a2.69,2.69,0,0,1-2.7,2.69h-6.64v-6.22h3.11v-3.11h6.23Zm0-18.53h-6.23V617.5h6.23Zm0-23.78h-6.23V593.72h6.23Zm0-23.79h-6.23V569.93h6.23Zm0-23.78h-6.23V546.15h6.23Zm0-23.79h-6.23V522.36h6.23Zm0-23.78h-6.23V498.58h6.23Zm0-23.79h-6.23V474.79h6.23Zm0-23.78h-6.23V451h6.23Zm0-23.79h-6.23V436h-3.11v-6.22h6.64a2.7,2.7,0,0,1,2.7,2.7Z"/></svg>