<svg xmlns="http://www.w3.org/2000/svg" viewBox="0 0 50 50"><defs><style>.cls-1{isolation:isolate;}.cls-2{fill:#1b75bc;}.cls-3{fill:#364a5e;mix-blend-mode:multiply;}.cls-4,.cls-5{fill:none;stroke:#858989;stroke-linecap:round;stroke-linejoin:round;}.cls-5{stroke-width:0.93px;}.cls-6{fill:#ee3a68;}.cls-7{fill:#7d9ed2;}</style></defs><title>17ADP_ICON_SET_FILES_R1</title><g class="cls-1"><g id="Layer_1" data-name="Layer 1"><polygon class="cls-2" points="37.07 45.18 35.26 45.18 34.43 38.9 37.9 38.9 37.07 45.18"/><path class="cls-3" d="M31.07,30.55s4.75-.37,6-3.77A5.58,5.58,0,0,0,41.32,30s-.07-5.13-5.12-5.13S31.07,30.55,31.07,30.55Z"/><path class="cls-4" d="M31.4,36.7H41a4,4,0,0,1,4,4v4.49a0,0,0,0,1,0,0H27.42a0,0,0,0,1,0,0V40.68A4,4,0,0,1,31.4,36.7Z"/><line class="cls-4" x1="34.1" y1="36.7" x2="35.37" y2="45.18"/><line class="cls-4" x1="38.34" y1="36.7" x2="37.07" y2="45.18"/><line class="cls-4" x1="38.22" y1="34.89" x2="38.22" y2="36.7"/><line class="cls-4" x1="34.17" y1="36.7" x2="34.17" y2="34.89"/><circle class="cls-4" cx="36.2" cy="30.04" r="5.13"/><line class="cls-5" x1="37.9" y1="38.9" x2="34.43" y2="38.9"/><polygon class="cls-3" points="23.31 16.18 20.09 16.18 20.09 10.32 21.3 12.87 23.38 14.66 23.31 16.18"/><polygon class="cls-3" points="27.49 16.18 30.71 16.18 30.71 10.32 29.5 12.87 27.42 14.66 27.49 16.18"/><polygon class="cls-6" points="26.27 24.95 24.46 24.95 23.64 18.67 27.1 18.67 26.27 24.95"/><path class="cls-3" d="M20.27,10.32s4.76-.37,6-3.77a5.58,5.58,0,0,0,4.26,3.26s-.07-5.13-5.13-5.13S20.27,10.32,20.27,10.32Z"/><path class="cls-4" d="M20.6,16.47H30.2a4,4,0,0,1,4,4v4.49a0,0,0,0,1,0,0H16.62a0,0,0,0,1,0,0V20.45A4,4,0,0,1,20.6,16.47Z"/><line class="cls-4" x1="23.31" y1="16.47" x2="24.58" y2="24.95"/><line class="cls-4" x1="27.54" y1="16.47" x2="26.27" y2="24.95"/><line class="cls-4" x1="27.42" y1="14.66" x2="27.42" y2="16.47"/><line class="cls-4" x1="23.38" y1="16.47" x2="23.38" y2="14.66"/><circle class="cls-4" cx="25.4" cy="9.81" r="5.13"/><line class="cls-5" x1="27.1" y1="18.67" x2="23.64" y2="18.67"/><polygon class="cls-3" points="11.88 36.4 8.65 36.4 8.65 30.55 9.87 33.1 11.94 34.89 11.88 36.4"/><polygon class="cls-3" points="16.06 36.4 19.28 36.4 19.28 30.55 18.07 33.1 15.99 34.89 16.06 36.4"/><polygon class="cls-7" points="14.84 45.18 13.03 45.18 12.21 38.9 15.67 38.9 14.84 45.18"/><path class="cls-3" d="M8.84,30.55s4.75-.37,6-3.77A5.58,5.58,0,0,0,19.09,30S19,24.91,14,24.91,8.84,30.55,8.84,30.55Z"/><path class="cls-4" d="M9.17,36.7h9.59a4,4,0,0,1,4,4v4.49a0,0,0,0,1,0,0H5.19a0,0,0,0,1,0,0V40.68A4,4,0,0,1,9.17,36.7Z"/><line class="cls-4" x1="11.88" y1="36.7" x2="13.14" y2="45.18"/><line class="cls-4" x1="16.11" y1="36.7" x2="14.84" y2="45.18"/><line class="cls-4" x1="15.99" y1="34.89" x2="15.99" y2="36.7"/><line class="cls-4" x1="11.94" y1="36.7" x2="11.94" y2="34.89"/><circle class="cls-4" cx="13.97" cy="30.04" r="5.13"/><line class="cls-5" x1="15.67" y1="38.9" x2="12.2" y2="38.9"/></g></g></svg>