<?xml version="1.0" encoding="utf-8"?>
<!-- Generator: Adobe Illustrator 22.1.0, SVG Export Plug-In . SVG Version: 6.00 Build 0)  -->
<svg version="1.1" id="Layer_1" xmlns="http://www.w3.org/2000/svg" xmlns:xlink="http://www.w3.org/1999/xlink" x="0px" y="0px"
	 viewBox="0 0 1080 1080" style="enable-background:new 0 0 1080 1080;" xml:space="preserve">
<style type="text/css">
	.st0{fill:none;}
	.st1{fill:#FFFFFF;}
	.st2{fill:#CFD2D3;}
	.st3{fill:#E7ECF3;}
	.st4{fill:#E5E6E6;}
	.st5{fill:none;stroke:#FFFFFF;stroke-width:3;stroke-miterlimit:10;}
	.st6{fill:none;stroke:#FFFFFF;stroke-width:3;stroke-miterlimit:10;stroke-dasharray:4.03,4.03;}
	.st7{fill:none;stroke:#FFFFFF;stroke-width:3;stroke-miterlimit:10;stroke-dasharray:3.95,3.95;}
	.st8{fill:#D1DBEB;}
	.st9{clip-path:url(#SVGID_2_);}
	.st10{fill:#5583C3;}
	.st11{fill:none;stroke:#CFDAEE;stroke-width:1.5;stroke-linecap:round;stroke-miterlimit:10;}
	.st12{clip-path:url(#SVGID_4_);}
	.st13{fill:#CFDAEE;}
	.st14{clip-path:url(#SVGID_6_);}
	.st15{fill:#7D99CF;}
	.st16{clip-path:url(#SVGID_8_);}
	.st17{fill:#1B76BA;}
	.st18{fill:none;stroke:#FFFFFF;stroke-miterlimit:10;}
	.st19{fill:none;stroke:#1B76BA;stroke-miterlimit:10;}
	.st20{fill:#787C8A;}
	.st21{fill:#E89F3D;}
	.st22{fill:#004F7E;}
	.st23{fill:#3576B2;}
	.st24{fill:#A6A7AA;}
	.st25{fill:#E84B6A;stroke:#1B76BA;stroke-miterlimit:10;}
	.st26{fill:#364A5E;}
	.st27{fill:url(#SVGID_9_);stroke:#FFFFFF;stroke-miterlimit:10;}
	.st28{fill:#3576B2;stroke:#FFFFFF;stroke-miterlimit:10;}
	.st29{fill:#ED3A69;}
	.st30{fill:url(#SVGID_10_);stroke:#FFFFFF;stroke-miterlimit:10;}
	.st31{fill:#E89F3D;stroke:#FFFFFF;stroke-miterlimit:10;}
	.st32{fill:#EC3A69;}
	.st33{fill:#37495E;}
	.st34{fill:#1B76BA;stroke:#1B76BA;stroke-miterlimit:10;}
	.st35{fill:#7BA2D5;}
</style>
<pattern  y="1080" width="9" height="9" patternUnits="userSpaceOnUse" id="New_Pattern_Swatch_4" viewBox="0 -9 9 9" style="overflow:visible;">
	<g>
		<rect y="-9" class="st0" width="9" height="9"/>
		<rect y="-9" class="st0" width="9" height="9"/>
		<path class="st0" d="M7.7-9H1.4c0,0.7-0.6,1.3-1.3,1.3c0,0,0,0,0,0v6.3c0.7,0,1.3,0.6,1.4,1.3c0,0,0,0,0,0h6.3
			c0-0.7,0.6-1.3,1.3-1.4c0,0,0,0,0,0v-6.3C8.3-7.6,7.7-8.2,7.7-9C7.6-9,7.6-9,7.7-9z M5.8-4.5c0,0.7-0.6,1.4-1.3,1.4
			S3.1-3.8,3.1-4.5s0.6-1.4,1.3-1.4c0,0,0,0,0,0C5.2-5.9,5.8-5.3,5.8-4.5C5.9-4.5,5.9-4.5,5.8-4.5z"/>
		<path class="st1" d="M1.4,0H0v-1.4C0.7-1.4,1.3-0.8,1.4,0C1.4,0,1.4,0,1.4,0z"/>
		<path class="st1" d="M9-1.4V0H7.7C7.6-0.7,8.2-1.3,9-1.4C9-1.4,9-1.4,9-1.4z"/>
		<circle class="st1" cx="4.5" cy="-4.5" r="1.3"/>
		<path class="st1" d="M0-7.7V-9h1.4C1.4-8.3,0.8-7.7,0-7.7C0-7.6,0-7.6,0-7.7z"/>
		<path class="st1" d="M9-7.7C8.3-7.6,7.7-8.2,7.7-9c0,0,0,0,0,0H9V-7.7z"/>
	</g>
</pattern>
<pattern  y="1080" width="9" height="9" patternUnits="userSpaceOnUse" id="New_Pattern_Swatch_4-3" viewBox="0 -9 9 9" style="overflow:visible;">
	<g>
		<rect y="-9" class="st0" width="9" height="9"/>
		<rect y="-9" class="st0" width="9" height="9"/>
		<path class="st0" d="M7.7-9H1.4c0,0.7-0.6,1.3-1.3,1.3c0,0,0,0,0,0v6.3c0.7,0,1.3,0.6,1.4,1.3c0,0,0,0,0,0h6.3
			c0-0.7,0.6-1.3,1.3-1.4c0,0,0,0,0,0v-6.3C8.3-7.6,7.7-8.2,7.7-9C7.6-9,7.6-9,7.7-9z M5.8-4.5c0,0.7-0.6,1.4-1.3,1.4
			S3.1-3.8,3.1-4.5s0.6-1.4,1.3-1.4c0,0,0,0,0,0C5.2-5.9,5.8-5.3,5.8-4.5C5.9-4.5,5.9-4.5,5.8-4.5z"/>
		<path class="st1" d="M1.4,0H0v-1.4C0.7-1.4,1.3-0.8,1.4,0C1.4,0,1.4,0,1.4,0z"/>
		<path class="st1" d="M9-1.4V0H7.7C7.6-0.7,8.2-1.3,9-1.4C9-1.4,9-1.4,9-1.4z"/>
		<circle class="st1" cx="4.5" cy="-4.5" r="1.3"/>
		<path class="st1" d="M0-7.7V-9h1.4C1.4-8.3,0.8-7.7,0-7.7C0-7.6,0-7.6,0-7.7z"/>
		<path class="st1" d="M9-7.7C8.3-7.6,7.7-8.2,7.7-9c0,0,0,0,0,0H9V-7.7z"/>
	</g>
</pattern>
<title>Agency</title>
<rect x="316.7" y="230.1" class="st2" width="593.7" height="369.5"/>
<path class="st3" d="M350.4,407.2c0,9.5,7.6,17.2,17.1,17.2s17.2-7.6,17.2-17.1c0-5.4-2.5-10.5-6.8-13.8l28.8-49.5
	c8.7,3.6,18.8-0.5,22.4-9.3c0.6-1.4,1-2.8,1.2-4.3h57c1.2,9.4,9.8,16,19.2,14.8c9.4-1.2,16-9.8,14.8-19.2s-9.8-16-19.2-14.8
	c-7.7,1-13.8,7.1-14.8,14.8h-57c-1.2-9.4-9.8-16-19.2-14.8c-9.4,1.2-16,9.8-14.8,19.2c0.6,4.6,3,8.7,6.6,11.5L374,391.3
	c-8.8-3.6-18.8,0.6-22.3,9.4C350.8,402.8,350.4,405,350.4,407.2L350.4,407.2z M491.5,328.2c0-7,5.7-12.7,12.7-12.7
	s12.7,5.7,12.7,12.7c0,7-5.7,12.7-12.7,12.7c0,0,0,0,0,0C497.2,340.8,491.6,335.2,491.5,328.2L491.5,328.2z M413.2,340.9
	c-7,0-12.7-5.7-12.7-12.7c0-7,5.7-12.7,12.7-12.7c7,0,12.7,5.7,12.7,12.7C425.9,335.2,420.2,340.8,413.2,340.9z M354.9,407.2
	c0-7,5.7-12.7,12.7-12.7c7,0,12.7,5.7,12.7,12.7c0,7-5.7,12.7-12.7,12.7c0,0,0,0,0,0C360.6,419.8,354.9,414.2,354.9,407.2z"/>
<ellipse class="st4" cx="541.6" cy="848.4" rx="511" ry="35.4"/>
<polyline class="st5" points="460.4,374.3 460.4,376.3 462.4,376.3 "/>
<line class="st6" x1="466.4" y1="376.3" x2="884" y2="376.3"/>
<polyline class="st5" points="886,376.3 888,376.3 888,374.3 "/>
<line class="st7" x1="888" y1="370.3" x2="888" y2="253.7"/>
<polyline class="st5" points="888,251.8 888,249.8 886,249.8 "/>
<line class="st6" x1="882" y1="249.8" x2="464.4" y2="249.8"/>
<polyline class="st5" points="462.4,249.8 460.4,249.8 460.4,251.8 "/>
<line class="st7" x1="460.4" y1="255.7" x2="460.4" y2="372.3"/>
<path class="st8" d="M254.5,506.4c-8.7,0.1-23.9,10.1-46.8,31.5c-43,40.1-8.6,47.3,8.6,80.2s-17.2,37.2-27.2,64.4
	c-8.8,23.8,27.3,49.8,36.6,55.9C223.9,723.9,213.1,618.3,254.5,506.4z"/>
<path class="st8" d="M263.5,527.8c1-11-0.4-18-4.8-20.5c-44.2,119.1-28.8,231-28.6,232.1l-2.3,0.3l14.3,7.1c0,0,40.1-68.7,12.9-87.4
	s-11.5-30,15.7-51.5S260.7,557.9,263.5,527.8z"/>
<path class="st2" d="M237.5,846.1L237.5,846.1c24.9,0,45-20.1,45-45l9.1-72.7H183.4l9.1,72.7C192.6,825.9,212.7,846.1,237.5,846.1z"
	/>
<g>
	<defs>
		<polygon id="SVGID_1_" points="639.4,835.5 528,775.1 651.5,745 705.6,773.1 699.5,818.6 		"/>
	</defs>
	<clipPath id="SVGID_2_">
		<use xlink:href="#SVGID_1_"  style="overflow:visible;"/>
	</clipPath>
	<g class="st9">
		
			<rect x="522" y="734.8" transform="matrix(0.9609 -0.2768 0.2768 0.9609 -195.5521 203.378)" class="st10" width="201.1" height="119.1"/>
	</g>
</g>
<line class="st11" x1="530.5" y1="775.6" x2="639.6" y2="788.2"/>
<g>
	<defs>
		
			<ellipse id="SVGID_3_" transform="matrix(0.9609 -0.277 0.277 0.9609 -193.1369 209.8849)" cx="646.4" cy="788.6" rx="4.9" ry="4.9"/>
	</defs>
	<clipPath id="SVGID_4_">
		<use xlink:href="#SVGID_3_"  style="overflow:visible;"/>
	</clipPath>
	<g class="st12">
		
			<rect x="626.5" y="768.9" transform="matrix(0.9609 -0.2768 0.2768 0.9609 -193.0561 209.7293)" class="st13" width="39.7" height="39.6"/>
	</g>
</g>
<g>
	<defs>
		<polygon id="SVGID_5_" points="699.5,818.6 725.1,820.1 731.5,776.9 705.6,773.1 		"/>
	</defs>
	<clipPath id="SVGID_6_">
		<use xlink:href="#SVGID_5_"  style="overflow:visible;"/>
	</clipPath>
	<g class="st14">
		
			<rect x="679" y="756.5" transform="matrix(0.9609 -0.2768 0.2768 0.9609 -192.598 229.0946)" class="st15" width="72.2" height="80.5"/>
	</g>
</g>
<g>
	<defs>
		<path id="SVGID_7_" d="M725.1,820.1c0.8,3.1,2.2,6,4,8.6c4,5.8,17.9,6.2,17.9,6.2l10.4-68.9c0,0-14.5-1.3-19.7,1.4
			c-3.8,1.9-6.6,9.7-6.6,9.7L725.1,820.1z"/>
	</defs>
	<clipPath id="SVGID_8_">
		<use xlink:href="#SVGID_7_"  style="overflow:visible;"/>
	</clipPath>
	<g class="st16">
		
			<rect x="705.5" y="752" transform="matrix(0.9609 -0.2768 0.2768 0.9609 -192.6129 237.0935)" class="st10" width="76" height="97.5"/>
	</g>
</g>
<path class="st17" d="M305.7,818.2c-28-29.1-27.1-75.5,2-103.5l101.5,105.5C380.1,848.3,333.7,847.4,305.7,818.2
	C305.7,818.2,305.7,818.2,305.7,818.2z"/>
<line class="st18" x1="316.5" y1="723.9" x2="302.5" y2="737.3"/>
<line class="st18" x1="321.6" y1="729.2" x2="314.7" y2="736"/>
<line class="st18" x1="326.8" y1="734.6" x2="319.8" y2="741.3"/>
<line class="st18" x1="332" y1="740" x2="325" y2="746.7"/>
<line class="st18" x1="337.5" y1="745.7" x2="323.5" y2="759.1"/>
<line class="st18" x1="342.6" y1="751" x2="335.6" y2="757.8"/>
<line class="st18" x1="347.8" y1="756.4" x2="340.8" y2="763.1"/>
<line class="st18" x1="352.9" y1="761.8" x2="346" y2="768.5"/>
<line class="st18" x1="358.4" y1="767.5" x2="344.5" y2="780.9"/>
<line class="st18" x1="363.6" y1="772.9" x2="356.6" y2="779.6"/>
<line class="st18" x1="368.8" y1="778.2" x2="361.8" y2="784.9"/>
<line class="st18" x1="373.9" y1="783.6" x2="366.9" y2="790.3"/>
<line class="st18" x1="379.4" y1="789.3" x2="365.5" y2="802.7"/>
<line class="st18" x1="384.6" y1="794.7" x2="377.6" y2="801.4"/>
<line class="st18" x1="389.7" y1="800" x2="382.8" y2="806.7"/>
<line class="st18" x1="394.9" y1="805.4" x2="387.9" y2="812.1"/>
<line class="st18" x1="400.4" y1="811.1" x2="386.4" y2="824.5"/>
<rect x="300" y="214" class="st19" width="626" height="437"/>
<g>
	<polygon class="st20" points="837,379.3 874.8,402.6 789.7,395.7 816.4,379.9 	"/>
	<path class="st20" d="M810.5,318.8c0,0-23.8,25.6-15.4,26.8s-5.4,25.6,21.4,22.6l-0.4,14.1l20.6-0.6l2.4-33.1
		c0,0,17.2-14.5,7.9-25.6S822,311.3,810.5,318.8z"/>
	<path class="st21" d="M805.5,312.8c0,0-0.3,11.5,11.5,13.6s12.4,8.9,11.8,15.8c-0.3,3.1,3.6-0.1,5.2,2c1.9,2.6,1.6,10.1,1.6,10.1
		s3.6,1.8,4.8,0.6s20.6-22.9,12.2-34.6s-25.6-11.8-37.4-8.4C806.3,314.4,805.5,312.8,805.5,312.8z"/>
	<path class="st21" d="M840.3,355c0,0-21.3,24-34.4,18c-5.8-2.7-7.3-16.4-7.3-16.4s4.7,0.4,6.3-1.2c2.4-2.3-0.1-4.6-6.9-5
		c0,0-1.1-3.1-0.4-3.6c2.9-2.2,9-3,20.5,1s16.6,0.4,16.6,0.4L840.3,355z"/>
	
		<ellipse transform="matrix(0.3346 -0.9423 0.9423 0.3346 232.7195 1016.4468)" class="st20" cx="836.1" cy="343.4" rx="6" ry="4.7"/>
	<path class="st20" d="M777.8,452.5l-42.8,25c-6.5,3.8-14.8,2.3-19.6-3.4l-61.7-65.5l-25-8.1l23.9-0.2l69.9,42l31.3-19.8
		L777.8,452.5z"/>
	<path class="st20" d="M905.3,443l23.7,43.5c3.6,6.6,1.9,14.8-4,19.5l-61.5,71.8l-4,24.8l-6.7-24.1l40.5-80.5l-18.8-31.9L905.3,443z
		"/>
	<path class="st22" d="M849.3,387.6c0,0,41.8,10.4,65.8,68.1l-35.5,24l-7-9l4.8,79.1l-100.1-2l6-95.8l-7.9,5.4l-26.5-35.8
		c0,0,44-35.3,59.2-34.7S849.3,387.6,849.3,387.6z"/>
	<polygon class="st23" points="777.7,547.4 877.8,547.4 886.2,839 873.6,839 828.4,596.2 811.5,839 797.7,839 780.8,689 	"/>
	<path class="st24" d="M797.7,839c0,0-34.6,6.1-35.7,11.8v4.6h51l-1.4-16.4H797.7z"/>
	<path class="st24" d="M886.8,838.4c0,0,34.6,6.1,35.7,11.8v4.6h-51l1.5-16.4L886.8,838.4z"/>
</g>
<line class="st19" x1="300.6" y1="615.6" x2="926.1" y2="615.6"/>
<circle class="st19" cx="323.3" cy="632.8" r="7.2"/>
<circle class="st25" cx="348.5" cy="632.8" r="7.2"/>
<circle class="st19" cx="373.8" cy="632.8" r="7.2"/>
<g>
	<rect x="365.1" y="440.1" class="st3" width="294" height="7.5"/>
	<rect x="365.1" y="462.6" class="st3" width="294" height="7.5"/>
	<rect x="365.1" y="485.1" class="st3" width="294" height="7.5"/>
	<rect x="365.1" y="507.6" class="st3" width="294" height="7.5"/>
</g>
<g>
	<rect x="184.6" y="195.1" class="st26" width="171.5" height="171.5"/>
	<g>
		
			<pattern  id="SVGID_9_" xlink:href="#New_Pattern_Swatch_4" patternTransform="matrix(0.4054 0 0 -0.4054 -4561.6064 -12065.4277)">
		</pattern>
		<polygon class="st27" points="225,309.8 150.1,309.8 150.1,212.5 205.8,212.5 225,234.5 		"/>
		<polygon class="st28" points="215,309.8 140.1,309.8 140.1,212.5 195.9,212.5 215,234.5 		"/>
		<rect x="175.7" y="283.3" class="st29" width="31" height="2.1"/>
		<rect x="178.3" y="279.5" class="st29" width="28.5" height="2.1"/>
		<rect x="166" y="275.6" class="st29" width="40.7" height="2.1"/>
		<rect x="158.7" y="271.8" class="st29" width="48.1" height="2.1"/>
		<rect x="172.1" y="267.9" class="st29" width="34.7" height="2.1"/>
		<rect x="162.1" y="264.1" class="st29" width="44.7" height="2.1"/>
		<rect x="175.7" y="260.2" class="st29" width="31" height="2.1"/>
		<rect x="183.1" y="256.4" class="st29" width="23.7" height="2.1"/>
		<rect x="175.7" y="252.5" class="st29" width="31" height="2.1"/>
		<rect x="168.3" y="248.7" class="st29" width="38.4" height="2.1"/>
		<rect x="145.9" y="236.9" class="st26" width="60.7" height="8.3"/>
		<rect x="145.9" y="289.2" class="st26" width="7.9" height="8.3"/>
		<rect x="166.7" y="289.2" class="st26" width="7.9" height="8.3"/>
		<rect x="177" y="289.2" class="st26" width="7.9" height="8.3"/>
		<rect x="198.6" y="289.2" class="st26" width="7.9" height="8.3"/>
		
			<pattern  id="SVGID_10_" xlink:href="#New_Pattern_Swatch_4-3" patternTransform="matrix(0.4054 0 0 -0.4054 -4557.1548 -12065.4277)">
		</pattern>
		<polygon class="st30" points="324.2,309.8 249.2,309.8 249.2,212.5 305,212.5 324.2,234.5 		"/>
		<polygon class="st31" points="314.2,309.8 239.3,309.8 239.3,212.5 295,212.5 314.2,234.5 		"/>
		<rect x="274.9" y="283.3" class="st29" width="31" height="2.1"/>
		<rect x="277.4" y="279.5" class="st29" width="28.5" height="2.1"/>
		<rect x="265.2" y="275.6" class="st29" width="40.7" height="2.1"/>
		<rect x="257.9" y="271.8" class="st29" width="48.1" height="2.1"/>
		<rect x="271.2" y="267.9" class="st29" width="34.7" height="2.1"/>
		<rect x="261.2" y="264.1" class="st29" width="44.7" height="2.1"/>
		<rect x="274.9" y="260.2" class="st29" width="31" height="2.1"/>
		<rect x="282.2" y="256.4" class="st29" width="23.7" height="2.1"/>
		<rect x="274.9" y="252.5" class="st29" width="31" height="2.1"/>
		<rect x="267.5" y="248.7" class="st29" width="38.4" height="2.1"/>
		<rect x="245.1" y="236.9" class="st26" width="60.7" height="8.3"/>
		<rect x="245.1" y="289.2" class="st26" width="7.9" height="8.3"/>
		<rect x="265.8" y="289.2" class="st26" width="7.9" height="8.3"/>
		<rect x="276.2" y="289.2" class="st26" width="7.9" height="8.3"/>
		<rect x="297.8" y="289.2" class="st26" width="7.9" height="8.3"/>
		
			<rect x="193.3" y="345" transform="matrix(0.7071 -0.7071 0.7071 0.7071 -189.7235 239.0284)" class="st1" width="0.8" height="7"/>
		
			<rect x="190.2" y="348.1" transform="matrix(0.7071 -0.7071 0.7071 0.7071 -189.7238 239.0292)" class="st1" width="7" height="0.8"/>
		
			<rect x="184.8" y="345" transform="matrix(0.7071 -0.7071 0.7071 0.7071 -192.2041 233.0414)" class="st26" width="0.8" height="7"/>
		
			<rect x="181.7" y="348.1" transform="matrix(0.7071 -0.7071 0.7071 0.7071 -192.2044 233.0422)" class="st26" width="7" height="0.8"/>
		
			<rect x="176.3" y="345" transform="matrix(0.7071 -0.7071 0.7071 0.7071 -194.6839 227.054)" class="st1" width="0.8" height="7"/>
		
			<rect x="173.2" y="348.1" transform="matrix(0.7071 -0.7071 0.7071 0.7071 -194.685 227.0545)" class="st1" width="7" height="0.8"/>
		
			<rect x="167.9" y="345" transform="matrix(0.7071 -0.7071 0.7071 0.7071 -197.1648 221.0655)" class="st26" width="0.8" height="7"/>
		
			<rect x="164.8" y="348.1" transform="matrix(0.7071 -0.7071 0.7071 0.7071 -197.1651 221.0663)" class="st26" width="7" height="0.8"/>
		
			<rect x="159.4" y="345" transform="matrix(0.7071 -0.7071 0.7071 0.7071 -199.6446 215.0781)" class="st1" width="0.8" height="7"/>
		
			<rect x="156.3" y="348.1" transform="matrix(0.7071 -0.7071 0.7071 0.7071 -199.6449 215.079)" class="st1" width="7" height="0.8"/>
		
			<rect x="150.9" y="345" transform="matrix(0.7071 -0.7071 0.7071 0.7071 -202.1243 209.0908)" class="st1" width="0.8" height="7"/>
		
			<rect x="147.8" y="348.1" transform="matrix(0.7071 -0.7071 0.7071 0.7071 -202.1247 209.0916)" class="st1" width="7" height="0.8"/>
		
			<rect x="142.5" y="345" transform="matrix(0.7071 -0.7071 0.7071 0.7071 -204.6053 203.103)" class="st1" width="0.8" height="7"/>
		
			<rect x="139.4" y="348.1" transform="matrix(0.7071 -0.7071 0.7071 0.7071 -204.6056 203.1038)" class="st1" width="7" height="0.8"/>
		
			<rect x="193.3" y="335.9" transform="matrix(0.7071 -0.7071 0.7071 0.7071 -183.2501 236.3469)" class="st1" width="0.8" height="7"/>
		
			<rect x="190.2" y="339" transform="matrix(0.7071 -0.7071 0.7071 0.7071 -183.2504 236.3477)" class="st1" width="7" height="0.8"/>
		
			<rect x="184.8" y="335.9" transform="matrix(0.7071 -0.7071 0.7071 0.7071 -185.7298 230.3595)" class="st1" width="0.8" height="7"/>
		
			<rect x="181.7" y="339" transform="matrix(0.7071 -0.7071 0.7071 0.7071 -185.7302 230.3603)" class="st1" width="7" height="0.8"/>
		
			<rect x="176.3" y="335.9" transform="matrix(0.7071 -0.7071 0.7071 0.7071 -188.2096 224.3722)" class="st26" width="0.8" height="7"/>
		
			<rect x="173.2" y="339" transform="matrix(0.7071 -0.7071 0.7071 0.7071 -188.2108 224.3727)" class="st26" width="7" height="0.8"/>
		
			<rect x="167.9" y="335.9" transform="matrix(0.7071 -0.7071 0.7071 0.7071 -190.6906 218.3836)" class="st1" width="0.8" height="7"/>
		
			<rect x="164.8" y="339" transform="matrix(0.7071 -0.7071 0.7071 0.7071 -190.6909 218.3845)" class="st1" width="7" height="0.8"/>
		
			<rect x="159.4" y="335.9" transform="matrix(0.7071 -0.7071 0.7071 0.7071 -193.1703 212.3963)" class="st1" width="0.8" height="7"/>
		
			<rect x="156.3" y="339" transform="matrix(0.7071 -0.7071 0.7071 0.7071 -193.1707 212.3971)" class="st1" width="7" height="0.8"/>
		
			<rect x="150.9" y="335.9" transform="matrix(0.7071 -0.7071 0.7071 0.7071 -195.6509 206.4093)" class="st26" width="0.8" height="7"/>
		
			<rect x="147.8" y="339" transform="matrix(0.7071 -0.7071 0.7071 0.7071 -195.6513 206.4101)" class="st26" width="7" height="0.8"/>
		
			<rect x="142.5" y="335.9" transform="matrix(0.7071 -0.7071 0.7071 0.7071 -198.131 200.4211)" class="st1" width="0.8" height="7"/>
		
			<rect x="139.4" y="339" transform="matrix(0.7071 -0.7071 0.7071 0.7071 -198.1314 200.4219)" class="st1" width="7" height="0.8"/>
		
			<rect x="193.3" y="326.7" transform="matrix(0.7071 -0.7071 0.7071 0.7071 -176.7762 233.6658)" class="st26" width="0.8" height="7"/>
		
			<rect x="190.2" y="329.8" transform="matrix(0.7071 -0.7071 0.7071 0.7071 -176.7762 233.6658)" class="st26" width="7" height="0.8"/>
		
			<rect x="184.8" y="326.7" transform="matrix(0.7071 -0.7071 0.7071 0.7071 -179.2559 227.6785)" class="st1" width="0.8" height="7"/>
		
			<rect x="181.7" y="329.8" transform="matrix(0.7071 -0.7071 0.7071 0.7071 -179.2559 227.6785)" class="st1" width="7" height="0.8"/>
		
			<rect x="176.3" y="326.7" transform="matrix(0.7071 -0.7071 0.7071 0.7071 -181.7357 221.6911)" class="st1" width="0.8" height="7"/>
		
			<rect x="173.2" y="329.8" transform="matrix(0.7071 -0.7071 0.7071 0.7071 -181.7365 221.6908)" class="st1" width="7" height="0.8"/>
		
			<rect x="167.9" y="326.7" transform="matrix(0.7071 -0.7071 0.7071 0.7071 -184.2167 215.7026)" class="st1" width="0.8" height="7"/>
		
			<rect x="164.8" y="329.8" transform="matrix(0.7071 -0.7071 0.7071 0.7071 -184.2167 215.7026)" class="st1" width="7" height="0.8"/>
		
			<rect x="159.4" y="326.7" transform="matrix(0.7071 -0.7071 0.7071 0.7071 -186.6973 209.7156)" class="st1" width="0.8" height="7"/>
		
			<rect x="156.3" y="329.8" transform="matrix(0.7071 -0.7071 0.7071 0.7071 -186.6973 209.7156)" class="st1" width="7" height="0.8"/>
		
			<rect x="150.9" y="326.7" transform="matrix(0.7071 -0.7071 0.7071 0.7071 -189.177 203.7283)" class="st1" width="0.8" height="7"/>
		
			<rect x="147.8" y="329.8" transform="matrix(0.7071 -0.7071 0.7071 0.7071 -189.177 203.7283)" class="st1" width="7" height="0.8"/>
		
			<rect x="142.5" y="326.7" transform="matrix(0.7071 -0.7071 0.7071 0.7071 -191.6571 197.7401)" class="st26" width="0.8" height="7"/>
		
			<rect x="139.4" y="329.8" transform="matrix(0.7071 -0.7071 0.7071 0.7071 -191.6571 197.7401)" class="st26" width="7" height="0.8"/>
		
			<rect x="257.3" y="345" transform="matrix(0.7071 -0.7071 0.7071 0.7071 -170.9739 284.2952)" class="st1" width="0.8" height="7"/>
		
			<rect x="254.2" y="348.1" transform="matrix(0.7071 -0.7071 0.7071 0.7071 -170.9743 284.2961)" class="st1" width="7" height="0.8"/>
		
			<rect x="248.8" y="345" transform="matrix(0.7071 -0.7071 0.7071 0.7071 -173.4537 278.3079)" class="st26" width="0.8" height="7"/>
		
			<rect x="245.7" y="348.1" transform="matrix(0.7071 -0.7071 0.7071 0.7071 -173.454 278.3087)" class="st26" width="7" height="0.8"/>
		
			<rect x="240.4" y="345" transform="matrix(0.7071 -0.7071 0.7071 0.7071 -175.9338 272.3197)" class="st1" width="0.8" height="7"/>
		
			<rect x="237.2" y="348.1" transform="matrix(0.7071 -0.7071 0.7071 0.7071 -175.935 272.3202)" class="st1" width="7" height="0.8"/>
		
			<rect x="231.9" y="345" transform="matrix(0.7071 -0.7071 0.7071 0.7071 -178.4144 266.332)" class="st26" width="0.8" height="7"/>
		
			<rect x="228.8" y="348.1" transform="matrix(0.7071 -0.7071 0.7071 0.7071 -178.4147 266.3328)" class="st26" width="7" height="0.8"/>
		<rect x="223.4" y="345" transform="matrix(0.7071 -0.7071 0.7071 0.7071 -180.895 260.345)" class="st1" width="0.8" height="7"/>
		
			<rect x="220.3" y="348.1" transform="matrix(0.7071 -0.7071 0.7071 0.7071 -180.8954 260.3458)" class="st1" width="7" height="0.8"/>
		<rect x="215" y="345" transform="matrix(0.7071 -0.7071 0.7071 0.7071 -183.3751 254.3568)" class="st1" width="0.8" height="7"/>
		
			<rect x="211.8" y="348.1" transform="matrix(0.7071 -0.7071 0.7071 0.7071 -183.3755 254.3577)" class="st1" width="7" height="0.8"/>
		
			<rect x="206.5" y="345" transform="matrix(0.7071 -0.7071 0.7071 0.7071 -185.8549 248.3695)" class="st1" width="0.8" height="7"/>
		
			<rect x="203.4" y="348.1" transform="matrix(0.7071 -0.7071 0.7071 0.7071 -185.8552 248.3703)" class="st1" width="7" height="0.8"/>
		
			<rect x="257.3" y="335.9" transform="matrix(0.7071 -0.7071 0.7071 0.7071 -164.4997 281.6134)" class="st1" width="0.8" height="7"/>
		<rect x="254.2" y="339" transform="matrix(0.7071 -0.7071 0.7071 0.7071 -164.5 281.6142)" class="st1" width="7" height="0.8"/>
		
			<rect x="248.8" y="335.9" transform="matrix(0.7071 -0.7071 0.7071 0.7071 -166.9794 275.626)" class="st1" width="0.8" height="7"/>
		
			<rect x="245.7" y="339" transform="matrix(0.7071 -0.7071 0.7071 0.7071 -166.9798 275.6269)" class="st1" width="7" height="0.8"/>
		
			<rect x="240.4" y="335.9" transform="matrix(0.7071 -0.7071 0.7071 0.7071 -169.4595 269.6378)" class="st26" width="0.8" height="7"/>
		
			<rect x="237.2" y="339" transform="matrix(0.7071 -0.7071 0.7071 0.7071 -169.4607 269.6383)" class="st26" width="7" height="0.8"/>
		
			<rect x="231.9" y="335.9" transform="matrix(0.7071 -0.7071 0.7071 0.7071 -171.941 263.6505)" class="st1" width="0.8" height="7"/>
		
			<rect x="228.8" y="339" transform="matrix(0.7071 -0.7071 0.7071 0.7071 -171.9413 263.6513)" class="st1" width="7" height="0.8"/>
		
			<rect x="223.4" y="335.9" transform="matrix(0.7071 -0.7071 0.7071 0.7071 -174.4208 257.6631)" class="st1" width="0.8" height="7"/>
		
			<rect x="220.3" y="339" transform="matrix(0.7071 -0.7071 0.7071 0.7071 -174.4211 257.664)" class="st1" width="7" height="0.8"/>
		
			<rect x="215" y="335.9" transform="matrix(0.7071 -0.7071 0.7071 0.7071 -176.9009 251.675)" class="st26" width="0.8" height="7"/>
		
			<rect x="211.8" y="339" transform="matrix(0.7071 -0.7071 0.7071 0.7071 -176.9012 251.6758)" class="st26" width="7" height="0.8"/>
		
			<rect x="206.5" y="335.9" transform="matrix(0.7071 -0.7071 0.7071 0.7071 -179.3806 245.6876)" class="st1" width="0.8" height="7"/>
		
			<rect x="203.4" y="339" transform="matrix(0.7071 -0.7071 0.7071 0.7071 -179.381 245.6884)" class="st1" width="7" height="0.8"/>
		
			<rect x="257.3" y="326.7" transform="matrix(0.7071 -0.7071 0.7071 0.7071 -158.0258 278.9323)" class="st26" width="0.8" height="7"/>
		
			<rect x="254.2" y="329.8" transform="matrix(0.7071 -0.7071 0.7071 0.7071 -158.0258 278.9323)" class="st26" width="7" height="0.8"/>
		
			<rect x="248.8" y="326.7" transform="matrix(0.7071 -0.7071 0.7071 0.7071 -160.5055 272.945)" class="st1" width="0.8" height="7"/>
		
			<rect x="245.7" y="329.8" transform="matrix(0.7071 -0.7071 0.7071 0.7071 -160.5055 272.945)" class="st1" width="7" height="0.8"/>
		
			<rect x="240.4" y="326.7" transform="matrix(0.7071 -0.7071 0.7071 0.7071 -162.9865 266.9572)" class="st1" width="0.8" height="7"/>
		
			<rect x="237.2" y="329.8" transform="matrix(0.7071 -0.7071 0.7071 0.7071 -162.9873 266.9568)" class="st1" width="7" height="0.8"/>
		
			<rect x="231.9" y="326.7" transform="matrix(0.7071 -0.7071 0.7071 0.7071 -165.4671 260.9695)" class="st1" width="0.8" height="7"/>
		
			<rect x="228.8" y="329.8" transform="matrix(0.7071 -0.7071 0.7071 0.7071 -165.4671 260.9695)" class="st1" width="7" height="0.8"/>
		
			<rect x="223.4" y="326.7" transform="matrix(0.7071 -0.7071 0.7071 0.7071 -167.9469 254.9821)" class="st1" width="0.8" height="7"/>
		
			<rect x="220.3" y="329.8" transform="matrix(0.7071 -0.7071 0.7071 0.7071 -167.9469 254.9821)" class="st1" width="7" height="0.8"/>
		
			<rect x="215" y="326.7" transform="matrix(0.7071 -0.7071 0.7071 0.7071 -170.427 248.9939)" class="st1" width="0.8" height="7"/>
		
			<rect x="211.8" y="329.8" transform="matrix(0.7071 -0.7071 0.7071 0.7071 -170.427 248.9939)" class="st1" width="7" height="0.8"/>
		
			<rect x="206.5" y="326.7" transform="matrix(0.7071 -0.7071 0.7071 0.7071 -172.9067 243.0066)" class="st26" width="0.8" height="7"/>
		
			<rect x="203.4" y="329.8" transform="matrix(0.7071 -0.7071 0.7071 0.7071 -172.9067 243.0066)" class="st26" width="7" height="0.8"/>
		
			<rect x="321.3" y="345" transform="matrix(0.7071 -0.7071 0.7071 0.7071 -152.2239 329.5609)" class="st1" width="0.8" height="7"/>
		
			<rect x="318.2" y="348.1" transform="matrix(0.7071 -0.7071 0.7071 0.7071 -152.2242 329.5617)" class="st1" width="7" height="0.8"/>
		
			<rect x="312.8" y="345" transform="matrix(0.7071 -0.7071 0.7071 0.7071 -154.7036 323.5735)" class="st26" width="0.8" height="7"/>
		
			<rect x="309.7" y="348.1" transform="matrix(0.7071 -0.7071 0.7071 0.7071 -154.7048 323.574)" class="st26" width="7" height="0.8"/>
		
			<rect x="304.4" y="345" transform="matrix(0.7071 -0.7071 0.7071 0.7071 -157.1842 317.5865)" class="st1" width="0.8" height="7"/>
		
			<rect x="301.3" y="348.1" transform="matrix(0.7071 -0.7071 0.7071 0.7071 -157.1854 317.587)" class="st1" width="7" height="0.8"/>
		
			<rect x="295.9" y="345" transform="matrix(0.7071 -0.7071 0.7071 0.7071 -159.6652 311.598)" class="st26" width="0.8" height="7"/>
		
			<rect x="292.8" y="348.1" transform="matrix(0.7071 -0.7071 0.7071 0.7071 -159.6655 311.5988)" class="st26" width="7" height="0.8"/>
		
			<rect x="287.4" y="345" transform="matrix(0.7071 -0.7071 0.7071 0.7071 -162.1449 305.6107)" class="st1" width="0.8" height="7"/>
		
			<rect x="284.3" y="348.1" transform="matrix(0.7071 -0.7071 0.7071 0.7071 -162.1453 305.6115)" class="st1" width="7" height="0.8"/>
		<rect x="279" y="345" transform="matrix(0.7071 -0.7071 0.7071 0.7071 -164.6247 299.6233)" class="st1" width="0.8" height="7"/>
		
			<rect x="275.9" y="348.1" transform="matrix(0.7071 -0.7071 0.7071 0.7071 -164.6251 299.6241)" class="st1" width="7" height="0.8"/>
		
			<rect x="270.5" y="345" transform="matrix(0.7071 -0.7071 0.7071 0.7071 -167.1045 293.636)" class="st1" width="0.8" height="7"/>
		
			<rect x="267.4" y="348.1" transform="matrix(0.7071 -0.7071 0.7071 0.7071 -167.1048 293.6368)" class="st1" width="7" height="0.8"/>
		
			<rect x="321.3" y="335.9" transform="matrix(0.7071 -0.7071 0.7071 0.7071 -145.7496 326.879)" class="st1" width="0.8" height="7"/>
		<rect x="318.2" y="339" transform="matrix(0.7071 -0.7071 0.7071 0.7071 -145.75 326.8799)" class="st1" width="7" height="0.8"/>
		
			<rect x="312.8" y="335.9" transform="matrix(0.7071 -0.7071 0.7071 0.7071 -148.2302 320.892)" class="st1" width="0.8" height="7"/>
		
			<rect x="309.7" y="339" transform="matrix(0.7071 -0.7071 0.7071 0.7071 -148.2314 320.8925)" class="st1" width="7" height="0.8"/>
		
			<rect x="304.4" y="335.9" transform="matrix(0.7071 -0.7071 0.7071 0.7071 -150.71 314.9047)" class="st26" width="0.8" height="7"/>
		
			<rect x="301.3" y="339" transform="matrix(0.7071 -0.7071 0.7071 0.7071 -150.7112 314.9052)" class="st26" width="7" height="0.8"/>
		
			<rect x="295.9" y="335.9" transform="matrix(0.7071 -0.7071 0.7071 0.7071 -153.1906 308.917)" class="st1" width="0.8" height="7"/>
		
			<rect x="292.8" y="339" transform="matrix(0.7071 -0.7071 0.7071 0.7071 -153.1909 308.9178)" class="st1" width="7" height="0.8"/>
		
			<rect x="287.4" y="335.9" transform="matrix(0.7071 -0.7071 0.7071 0.7071 -155.6707 302.9288)" class="st1" width="0.8" height="7"/>
		
			<rect x="284.3" y="339" transform="matrix(0.7071 -0.7071 0.7071 0.7071 -155.6711 302.9297)" class="st1" width="7" height="0.8"/>
		
			<rect x="279" y="335.9" transform="matrix(0.7071 -0.7071 0.7071 0.7071 -158.1505 296.9415)" class="st26" width="0.8" height="7"/>
		
			<rect x="275.9" y="339" transform="matrix(0.7071 -0.7071 0.7071 0.7071 -158.1508 296.9423)" class="st26" width="7" height="0.8"/>
		
			<rect x="270.5" y="335.9" transform="matrix(0.7071 -0.7071 0.7071 0.7071 -160.6311 290.9545)" class="st1" width="0.8" height="7"/>
		
			<rect x="267.4" y="339" transform="matrix(0.7071 -0.7071 0.7071 0.7071 -160.6314 290.9553)" class="st1" width="7" height="0.8"/>
		
			<rect x="321.3" y="326.7" transform="matrix(0.7071 -0.7071 0.7071 0.7071 -139.2762 324.1992)" class="st26" width="0.8" height="7"/>
		
			<rect x="318.2" y="329.8" transform="matrix(0.7071 -0.7071 0.7071 0.7071 -139.2762 324.1992)" class="st26" width="7" height="0.8"/>
		
			<rect x="312.8" y="326.7" transform="matrix(0.7071 -0.7071 0.7071 0.7071 -141.7563 318.211)" class="st1" width="0.8" height="7"/>
		
			<rect x="309.7" y="329.8" transform="matrix(0.7071 -0.7071 0.7071 0.7071 -141.7572 318.2107)" class="st1" width="7" height="0.8"/>
		
			<rect x="304.4" y="326.7" transform="matrix(0.7071 -0.7071 0.7071 0.7071 -144.2361 312.2237)" class="st1" width="0.8" height="7"/>
		
			<rect x="301.3" y="329.8" transform="matrix(0.7071 -0.7071 0.7071 0.7071 -144.2369 312.2233)" class="st1" width="7" height="0.8"/>
		
			<rect x="295.9" y="326.7" transform="matrix(0.7071 -0.7071 0.7071 0.7071 -146.7167 306.236)" class="st1" width="0.8" height="7"/>
		
			<rect x="292.8" y="329.8" transform="matrix(0.7071 -0.7071 0.7071 0.7071 -146.7167 306.236)" class="st1" width="7" height="0.8"/>
		
			<rect x="287.4" y="326.7" transform="matrix(0.7071 -0.7071 0.7071 0.7071 -149.1968 300.2478)" class="st1" width="0.8" height="7"/>
		
			<rect x="284.3" y="329.8" transform="matrix(0.7071 -0.7071 0.7071 0.7071 -149.1968 300.2478)" class="st1" width="7" height="0.8"/>
		
			<rect x="279" y="326.7" transform="matrix(0.7071 -0.7071 0.7071 0.7071 -151.6774 294.2608)" class="st1" width="0.8" height="7"/>
		
			<rect x="275.9" y="329.8" transform="matrix(0.7071 -0.7071 0.7071 0.7071 -151.6774 294.2608)" class="st1" width="7" height="0.8"/>
		
			<rect x="270.5" y="326.7" transform="matrix(0.7071 -0.7071 0.7071 0.7071 -154.1572 288.2735)" class="st26" width="0.8" height="7"/>
		
			<rect x="267.4" y="329.8" transform="matrix(0.7071 -0.7071 0.7071 0.7071 -154.1572 288.2734)" class="st26" width="7" height="0.8"/>
	</g>
</g>
<g>
	
		<rect x="422.4" y="637.6" transform="matrix(0.9714 -0.2373 0.2373 0.9714 -163.1168 124.1032)" class="st32" width="22.9" height="203.8"/>
	<polygon class="st33" points="462.9,858.4 446.7,841.4 469.5,835.8 	"/>
	<path class="st34" d="M415,615.1l5.6,23l0,0l-21.5,5.3l0,0l-5.6-23c-1-3.9,1.4-7.8,5.3-8.8c0,0,0,0,0,0l7.4-1.8
		C410.1,608.8,414,611.2,415,615.1L415,615.1L415,615.1z"/>
</g>
<g>
	<path class="st17" d="M479.6,573.1h-98.7c-10.3,0-18.8-8.5-18.8-18.8v0c0-10.3,8.5-18.8,18.8-18.8h98.7c10.3,0,18.8,8.5,18.8,18.8
		v0C498.4,564.6,490,573.1,479.6,573.1z"/>
	<g>
		<path class="st1" d="M396,557.7h-4.8l-1,3.3h-2.9l4.7-13.5h3.3l4.7,13.5h-3L396,557.7z M391.9,555.6h3.5l-1.7-5.5h-0.1
			L391.9,555.6z"/>
		<path class="st1" d="M401.4,561v-13.5h2.4l6.3,8.8h0.1v-8.8h2.7V561h-2.3l-6.3-8.9h-0.1v8.9H401.4z"/>
		<path class="st1" d="M423,557.7h-4.8l-1,3.3h-2.9l4.7-13.5h3.3L427,561h-3L423,557.7z M418.8,555.6h3.5l-1.7-5.5h-0.1L418.8,555.6
			z"/>
		<path class="st1" d="M437.1,561h-8.7v-13.5h2.8v11.2h5.9V561z"/>
		<path class="st1" d="M440.5,561v-5.1l-4.7-8.5h3.1l3,5.8h0.1l3-5.8h3l-4.7,8.5v5.1H440.5z"/>
		<path class="st1" d="M449.1,559.1l6.9-9.3v-0.1h-6.7v-2.3h10.1v1.8l-6.8,9.3v0.1h7v2.3h-10.4V559.1z"/>
		<path class="st1" d="M470.5,561h-9v-13.5h9v2.3h-6.1v3.3h5.8v2.2h-5.8v3.4h6.1V561z"/>
	</g>
</g>
<g>
	<path class="st32" d="M642,573.1h-98.7c-10.3,0-18.8-8.5-18.8-18.8v0c0-10.3,8.5-18.8,18.8-18.8H642c10.3,0,18.8,8.5,18.8,18.8v0
		C660.8,564.6,652.3,573.1,642,573.1z"/>
	<g>
		<path class="st1" d="M556.2,561h-2.8v-13.5h5.5c3.1,0,4.9,1.6,4.9,4.3c0,1.7-0.9,3.2-2.5,3.8l2.8,5.4H561l-2.5-4.9h-2.3V561z
			 M556.2,554h2.4c1.4,0,2.3-0.8,2.3-2.2c0-1.3-0.9-2.2-2.3-2.2h-2.4V554z"/>
		<path class="st1" d="M574.6,561h-9v-13.5h9v2.3h-6.1v3.3h5.8v2.2h-5.8v3.4h6.1V561z"/>
		<path class="st1" d="M578.9,557.1c0.1,1.1,1.3,1.8,2.8,1.8c1.5,0,2.5-0.7,2.5-1.7c0-0.9-0.6-1.4-2.3-1.7l-1.8-0.4
			c-2.5-0.5-3.7-1.8-3.7-3.8c0-2.5,2.2-4.1,5.2-4.1c3.1,0,5.1,1.6,5.2,4.1h-2.7c-0.1-1.1-1.1-1.8-2.5-1.8c-1.4,0-2.3,0.7-2.3,1.7
			c0,0.8,0.7,1.3,2.2,1.7l1.6,0.3c2.7,0.6,3.9,1.7,3.9,3.8c0,2.6-2.1,4.3-5.5,4.3c-3.3,0-5.3-1.5-5.4-4.1H578.9z"/>
		<path class="st1" d="M591.6,555.9c0,1.7,1,2.9,2.8,2.9c1.8,0,2.8-1.1,2.8-2.9v-8.5h2.8v8.7c0,3-2.2,5-5.7,5c-3.5,0-5.7-2-5.7-5
			v-8.7h2.8V555.9z"/>
		<path class="st1" d="M611.1,561h-8.7v-13.5h2.8v11.2h5.9V561z"/>
		<path class="st1" d="M614.3,561v-11.2h-3.9v-2.3H621v2.3h-3.9V561H614.3z"/>
		<path class="st1" d="M624.8,557.1c0.1,1.1,1.3,1.8,2.8,1.8c1.5,0,2.5-0.7,2.5-1.7c0-0.9-0.6-1.4-2.3-1.7l-1.8-0.4
			c-2.5-0.5-3.7-1.8-3.7-3.8c0-2.5,2.2-4.1,5.2-4.1c3.1,0,5.1,1.6,5.2,4.1h-2.7c-0.1-1.1-1.1-1.8-2.5-1.8c-1.4,0-2.3,0.7-2.3,1.7
			c0,0.8,0.7,1.3,2.2,1.7l1.6,0.3c2.7,0.6,3.9,1.7,3.9,3.8c0,2.6-2.1,4.3-5.5,4.3c-3.3,0-5.3-1.5-5.4-4.1H624.8z"/>
	</g>
</g>
<path class="st35" d="M653,298.3h-90.8c-3.1,0-5.6,2.5-5.6,5.6v90.8c0,3.1,2.5,5.6,5.6,5.6h48.9v-39.5h-13.3v-15.4h13.3V334
	c0-13.2,8-20.4,19.8-20.4c5.6,0,10.5,0.4,11.9,0.6v13.8l-8.2,0c-6.4,0-7.6,3-7.6,7.5v9.8h15.2l-2,15.4H627v39.5h26
	c3.1,0,5.6-2.5,5.6-5.6v-90.8C658.6,300.8,656.1,298.3,653,298.3z"/>
</svg>
