<svg id="Layer_1" data-name="Layer 1" xmlns="http://www.w3.org/2000/svg" viewBox="0 0 485 485"><defs><style>.cls-1{fill:#e6e7e8;}.cls-2{fill:#404041;}.cls-3{fill:#d1dbee;}.cls-4{fill:#58595b;}.cls-5{fill:#004e7d;}.cls-6{fill:#7ca3d5;}.cls-7{fill:#8096c7;}.cls-8{fill:#ccd3e5;}.cls-9{fill:#e84a69;}.cls-10,.cls-21{fill:#fff;}.cls-11{fill:none;stroke:#fff;stroke-miterlimit:10;stroke-width:2px;stroke-dasharray:6;}.cls-12{fill:#eb3868;}.cls-13{fill:#3475b1;}.cls-14{fill:#35495e;}.cls-15{fill:#056b9e;}.cls-16{fill:#a6a8ab;}.cls-17{fill:#7294ba;}.cls-18{fill:#7ba2d5;}.cls-19{fill:#037bc0;}.cls-20{fill:#9e9e9e;}.cls-21{font-size:26.97px;font-family:SFProDisplay-Regular, SF Pro Display;}.cls-22{letter-spacing:-0.02em;}.cls-23{letter-spacing:0em;}.cls-24{letter-spacing:-0.03em;}.cls-25{letter-spacing:-0.02em;}</style></defs><title>Site_GIFs</title><path class="cls-1" d="M420.74,411.25s92,18.88,9.62,18.88-26.11,10.23-116.78,10.23-337.06,2.62-294-7.08C86.25,418.25,284.73,399.45,420.74,411.25Z"/><rect class="cls-2" x="89.4" y="104.52" width="191.07" height="320.67" rx="16.42" ry="16.42"/><rect class="cls-3" x="97.81" y="126.37" width="173.81" height="261.48"/><rect class="cls-4" x="161.95" y="111.6" width="46.82" height="5.98" rx="2.99" ry="2.99"/><circle class="cls-4" cx="185.36" cy="406.75" r="13.07"/><rect class="cls-5" x="97.85" y="127.05" width="174.01" height="261.89"/><rect class="cls-6" x="97.66" y="126.38" width="174.26" height="36.2"/><rect class="cls-7" x="97.56" y="352.69" width="174.35" height="36.2"/><rect class="cls-8" x="134.27" y="138.55" width="111.86" height="4.3"/><rect class="cls-8" x="134.27" y="147.63" width="72.01" height="4.3"/><rect class="cls-8" x="113.13" y="365.27" width="65.25" height="4.3"/><rect class="cls-8" x="113.13" y="374.35" width="42.01" height="4.3"/><rect class="cls-3" x="102.26" y="168.39" width="163.76" height="178.77"/><rect class="cls-9" x="195.79" y="361.84" width="63.8" height="19.46" rx="0.74" ry="0.74"/><rect class="cls-10" x="203.24" y="369.34" width="47.23" height="4.46"/><ellipse class="cls-8" cx="201.93" cy="286.08" rx="49.72" ry="48.67"/><ellipse class="cls-11" cx="204.41" cy="271.48" rx="49.72" ry="48.67"/><ellipse class="cls-12" cx="227.15" cy="250.76" rx="11.68" ry="11.43"/><path class="cls-13" d="M124.06,310.23l21.41-4a.18.18,0,0,0,.11-.3L131.36,289.8a.18.18,0,0,0-.31.06L123.86,310A.18.18,0,0,0,124.06,310.23Z"/><polygon class="cls-10" points="146.63 314.15 148.33 314.89 141.58 329.78 139.88 329.04 146.63 314.15"/><polygon class="cls-10" points="136.87 317.83 152.09 324.44 151.33 326.1 136.12 319.49 136.87 317.83"/><ellipse class="cls-8" cx="114.56" cy="143.72" rx="11.27" ry="11.03"/><path class="cls-14" d="M255.88,147.86s12.51-6,14.51-3.75,5.82,11.12,5.82,11.12l-8.32,4.39s-5-5.75-3-8.25S248.62,153.12,255.88,147.86Z"/><path class="cls-15" d="M337.43,152.32c.29-13.95-21.57,12.46-21.57,12.46l-22,15.93L277.46,154l-11.72,5.72,17.76,35.88A11.57,11.57,0,0,0,298,200.9C312.41,195.25,336.81,181.39,337.43,152.32Z"/><path class="cls-16" d="M387,405.77l-5.14,9.42a53.16,53.16,0,0,0-10.24,3.15A4.76,4.76,0,0,0,369,424h18.1L402,412.52l-5.37-9.28Z"/><path class="cls-16" d="M339.57,410.16s-24.83,4.1-25.65,8v3.08h36.64l-1-11Z"/><path class="cls-14" d="M333,146.2l-1-12.7s10.64-13-4.51-21.72c-11-6.37-18,3.89-21.37,11.47a31.85,31.85,0,0,0-1.95,5.47c-.55,1.9-3.2,6.83,5.54,4.64,0,0-2,16.12,12.53,11.75l.58,8.33Z"/><path class="cls-17" d="M347.24,260.94l2.33,149.16a13,13,0,0,1-10.49.54s-29.14-132.76-28-180.84Z"/><path class="cls-18" d="M360.07,224.88l14.57,100.53,23.89,80.86a17.88,17.88,0,0,1-12.24.55s-31.6-51.84-42-79.77c-9.33-25.13-33.22-97.25-33.22-97.25Z"/><path class="cls-19" d="M335,144.56l-14.57,9.84s-5.05,6.92-9.32,19.67c-4.83,14.4-10.69,32.41-3.69,60.28,0,0,46.82,11.11,56.14.18C363.56,234.53,356,162.05,335,144.56Z"/><path class="cls-20" d="M309.36,108.5l1.75,6.29s16.56-2.35,15.88,7.37c-1,14.48,2.48,14.21,2.48,14.21h4.37s5.54-9,4.66-17.76S331.51,105.5,309.36,108.5Z"/><ellipse class="cls-14" cx="327.43" cy="125.71" rx="3.35" ry="3.41"/><path class="cls-15" d="M335,144.56s4.28,87.6,13.21,94.89l8.94-1.09Z"/><path class="cls-14" d="M368,266.69s3.54,5,5.47-14.84l-8.74,1.25Z"/><path class="cls-19" d="M335,144.56s32.06,24,39.64,106.54c0,0-1.17,4.92-12.83,6.56S335,144.56,335,144.56Z"/><ellipse class="cls-10" cx="319.44" cy="160.97" rx="1.48" ry="1.66"/><ellipse class="cls-10" cx="316.05" cy="173.78" rx="1.48" ry="1.66"/><ellipse class="cls-10" cx="314.55" cy="185.18" rx="1.48" ry="1.66"/><text class="cls-21" transform="translate(109.44 205.45)">D<tspan class="cls-22" x="18.29" y="0">O</tspan><tspan class="cls-23" x="37.36" y="0">WN</tspan><tspan class="cls-24" x="81.14" y="0">L</tspan><tspan class="cls-25" x="94.49" y="0">O</tspan><tspan x="113.69" y="0">AD</tspan></text></svg>